<svg width="120" height="120" viewBox="0 0 120 120" fill="none" xmlns="http://www.w3.org/2000/svg">
<g clip-path="url(#clip0_175_3527)">
<path fill-rule="evenodd" clip-rule="evenodd" d="M82.5 112.5C90.4565 112.5 98.0871 109.339 103.713 103.713C109.339 98.0871 112.5 90.4565 112.5 82.5C112.5 74.5435 109.339 66.9129 103.713 61.2868C98.0871 55.6607 90.4565 52.5 82.5 52.5C74.5435 52.5 66.9129 55.6607 61.2868 61.2868C55.6607 66.9129 52.5 74.5435 52.5 82.5C52.5 90.4565 55.6607 98.0871 61.2868 103.713C66.9129 109.339 74.5435 112.5 82.5 112.5ZM120 82.5C120 92.4456 116.049 101.984 109.017 109.017C101.984 116.049 92.4456 120 82.5 120C72.5544 120 63.0161 116.049 55.9835 109.017C48.9509 101.984 45 92.4456 45 82.5C45 72.5544 48.9509 63.0161 55.9835 55.9835C63.0161 48.9509 72.5544 45 82.5 45C92.4456 45 101.984 48.9509 109.017 55.9835C116.049 63.0161 120 72.5544 120 82.5Z" fill="#EBF2FA"/>
<path d="M70.785 89.58C71.1375 94.05 74.67 97.53 81.0075 97.95V101.25H83.82V97.9275C90.3825 97.47 94.215 93.96 94.215 88.875C94.215 84.24 91.29 81.855 86.04 80.625L83.82 80.1V71.1C86.64 71.4225 88.425 72.96 88.8525 75.09H93.7875C93.435 70.7775 89.7375 67.41 83.82 67.0425V63.75H81.0075V67.125C75.405 67.6725 71.595 71.04 71.595 75.81C71.595 80.025 74.43 82.71 79.1475 83.805L81.0075 84.2625V93.8025C78.1275 93.3675 76.215 91.7775 75.7875 89.58H70.7775H70.785ZM80.985 79.425C78.2175 78.7875 76.7175 77.475 76.7175 75.51C76.7175 73.305 78.3375 71.655 81.0075 71.175V79.425H80.985ZM84.225 85.02C87.5925 85.8 89.1375 87.06 89.1375 89.2875C89.1375 91.83 87.21 93.57 83.82 93.8925V84.93L84.225 85.02Z" fill="#679436"/>
<path d="M7.5 0C5.51088 0 3.60322 0.790176 2.1967 2.1967C0.790176 3.60322 0 5.51088 0 7.5L0 67.5C0 69.4891 0.790176 71.3968 2.1967 72.8033C3.60322 74.2098 5.51088 75 7.5 75H38.1225C38.5575 72.42 39.21 69.915 40.0575 67.5H22.5C22.5 63.5218 20.9196 59.7064 18.1066 56.8934C15.2936 54.0804 11.4782 52.5 7.5 52.5V22.5C11.4782 22.5 15.2936 20.9196 18.1066 18.1066C20.9196 15.2936 22.5 11.4782 22.5 7.5H97.5C97.5 11.4782 99.0804 15.2936 101.893 18.1066C104.706 20.9196 108.522 22.5 112.5 22.5V48.96C115.35 51.51 117.878 54.42 120 57.615V7.5C120 5.51088 119.21 3.60322 117.803 2.1967C116.397 0.790176 114.489 0 112.5 0L7.5 0Z" fill="#EBF2FA"/>
<path d="M74.985 38.1224L75 37.4999C74.9985 34.9168 74.3299 32.3779 73.0591 30.1291C71.7883 27.8802 69.9583 25.9977 67.7463 24.6638C65.5343 23.3298 63.0154 22.5897 60.4334 22.5151C57.8514 22.4404 55.2939 23.0338 53.0086 24.2378C50.7232 25.4417 48.7875 27.2154 47.389 29.3871C45.9904 31.5588 45.1763 34.0548 45.0256 36.6335C44.8748 39.2122 45.3926 41.786 46.5286 44.1059C47.6647 46.4257 49.3805 48.4129 51.51 49.8749C57.9882 43.7044 66.1632 39.6117 74.985 38.1224Z" fill="#679436"/>
</g>
<defs>
<clipPath id="clip0_175_3527">
<rect width="120" height="120" fill="white"/>
</clipPath>
</defs>
</svg>
