<svg width="208" height="173" viewBox="0 0 208 173" fill="none" xmlns="http://www.w3.org/2000/svg">
<g clip-path="url(#clip0_175_3518)">
<path fill-rule="evenodd" clip-rule="evenodd" d="M198.038 29.918C197.656 30.556 197.078 30.8801 196.725 31.0377C196.724 31.0377 196.724 31.0378 196.724 31.0379C188.665 34.6334 185.185 39.8059 182.101 45.585C181.669 46.3963 181.241 47.2285 180.805 48.0744C178.164 53.2102 175.261 58.8543 169.403 63.4283L167.705 61.5683L169.403 63.4283C155.89 73.9815 138.827 72.9146 128.807 62.8091C123.588 57.5454 122.334 50.0392 124.137 43.0654C125.95 36.0563 130.904 29.2636 138.646 25.0977L138.647 25.0972C149.183 19.4342 164.819 19.5102 176.867 21.034C182.966 21.8054 188.361 22.9755 192.027 24.097C193.808 24.6419 195.379 25.2337 196.419 25.8476C196.694 26.0096 196.997 26.2113 197.278 26.4575C197.536 26.6829 197.931 27.0805 198.175 27.6567C198.461 28.3342 198.488 29.1669 198.038 29.918ZM141.362 29.2619C150.396 24.4064 164.569 24.2674 176.415 25.7656C182.252 26.5038 187.318 27.6134 190.622 28.6225C183.716 32.7015 180.303 38.0326 177.493 43.2994C177.013 44.1987 176.553 45.087 176.1 45.9625C173.443 51.1012 171.013 55.7991 166.006 59.7084L166.006 59.7085C154.158 68.9615 140.266 67.497 132.494 59.6583C128.817 55.9499 127.599 50.276 129.121 44.3892C130.635 38.538 134.805 32.79 141.361 29.2624C141.361 29.2623 141.361 29.2621 141.362 29.262" fill="#679436"/>
<path fill-rule="evenodd" clip-rule="evenodd" d="M163.73 35.5138C164.461 36.6736 164.072 38.1225 162.861 38.7499C147.051 46.9389 136.202 56.9686 128.628 72.2163C128.045 73.3907 126.527 73.8566 125.238 73.2569C123.95 72.6571 123.378 71.2189 123.961 70.0445C132.016 53.8264 143.635 43.1366 160.213 34.5496C161.425 33.9222 162.999 34.3539 163.73 35.5138Z" fill="#679436"/>
</g>
<path d="M75 158.937C41.3994 158.937 14.0625 131.6 14.0625 97.999C14.0625 64.3984 41.3994 37.0615 75 37.0615C108.601 37.0615 135.938 64.3984 135.938 97.999C135.938 131.6 108.601 158.937 75 158.937ZM75 46.4365C46.582 46.4365 23.4375 69.5811 23.4375 97.999C23.4375 126.417 46.582 149.562 75 149.562C103.418 149.562 126.562 126.432 126.562 97.999C126.562 69.5664 103.433 46.4365 75 46.4365Z" fill="#EBF2FA"/>
<path d="M94.8252 108.546C89.7275 108.546 84.8027 106.284 80.956 102.18C77.1512 98.0527 74.8763 92.7459 74.5107 87.1445C74.08 81.0801 75.9404 75.499 79.749 71.4355C83.5576 67.3721 88.8808 65.1865 94.8252 65.1865C100.726 65.1865 106.066 67.4189 109.863 71.4736C113.66 75.5283 115.567 81.1416 115.137 87.1504C114.764 92.7484 112.49 98.0511 108.691 102.18C104.842 106.284 99.9199 108.546 94.8252 108.546Z" fill="#EBF2FA"/>
<path d="M47.9941 109.53C39.2754 109.53 31.6084 101.471 30.9053 91.5625C30.5449 86.4883 32.1211 81.7979 35.3496 78.3555C38.5781 74.9131 43.0312 73.082 47.9912 73.082C52.9512 73.082 57.4014 74.9688 60.6094 78.3965C63.8174 81.8242 65.4433 86.5469 65.0771 91.5801C64.3623 101.474 56.6982 109.53 47.9941 109.53Z" fill="#EBF2FA"/>
<path d="M123.155 127.085C122.689 125.708 121.556 124.24 119.282 122.849C112.409 118.65 103.954 116.43 94.8252 116.43C85.8692 116.43 77.1797 118.744 70.3535 122.948C62.6631 127.686 57.4951 134.594 55.4121 142.923C54.9199 144.883 54.2022 148.53 54.9697 150.572C67.2876 155.256 80.8583 155.471 93.3182 151.18C105.778 146.888 116.338 138.361 123.158 127.085H123.155Z" fill="#EBF2FA"/>
<path d="M47.9385 140.588C50.0098 132.323 54.419 125.433 61.2598 119.86C61.5832 119.594 61.8291 119.245 61.9719 118.851C62.1147 118.457 62.1491 118.031 62.0716 117.619C61.9941 117.207 61.8075 116.823 61.5313 116.508C61.255 116.193 60.8992 115.957 60.501 115.826C56.9854 114.704 52.9717 114.104 47.9941 114.104C41.0156 114.104 33.6064 115.993 28.0312 119.427C26.4492 120.402 24.8965 120.777 23.7012 121.111C28.5002 131.718 36.4588 140.583 46.4883 146.494L47.0127 146.453C47.1274 144.472 47.4375 142.508 47.9385 140.588Z" fill="#EBF2FA"/>
<defs>
<clipPath id="clip0_175_3518">
<rect width="75.817" height="82.5176" fill="white" transform="translate(208 23.9971) rotate(106.907)"/>
</clipPath>
</defs>
</svg>
