<svg width="110" height="110" viewBox="0 0 110 110" fill="none" xmlns="http://www.w3.org/2000/svg">
<path fill-rule="evenodd" clip-rule="evenodd" d="M16.7578 85.9375C18.6563 85.9375 20.1953 87.4765 20.1953 89.375C20.1953 92.5319 21.1186 95.1477 22.574 96.9068C23.9749 98.6002 26.0091 99.6875 28.7891 99.6875H57.1484C59.9285 99.6875 61.9626 98.6002 63.3635 96.9068C64.8189 95.1477 65.7422 92.5319 65.7422 89.375C65.7422 87.4765 67.2812 85.9375 69.1797 85.9375C71.0782 85.9375 72.6172 87.4765 72.6172 89.375C72.6172 93.8128 71.3223 98.0721 68.6607 101.289C65.9446 104.572 61.9632 106.562 57.1484 106.562H28.7891C23.9743 106.562 19.9929 104.572 17.2768 101.289C14.6152 98.0721 13.3203 93.8128 13.3203 89.375C13.3203 87.4765 14.8593 85.9375 16.7578 85.9375Z" fill="#EBF2FA"/>
<path fill-rule="evenodd" clip-rule="evenodd" d="M13.75 75.625C12.5282 75.625 10.3125 77.1785 10.3125 80.7812C10.3125 84.384 12.5282 85.9375 13.75 85.9375H72.1875C73.4093 85.9375 75.625 84.384 75.625 80.7812C75.625 77.1785 73.4093 75.625 72.1875 75.625C70.289 75.625 68.75 74.086 68.75 72.1875C68.75 70.289 70.289 68.75 72.1875 68.75C78.5583 68.75 82.5 74.8922 82.5 80.7812C82.5 86.6703 78.5583 92.8125 72.1875 92.8125H13.75C7.3792 92.8125 3.4375 86.6703 3.4375 80.7812C3.4375 74.8922 7.3792 68.75 13.75 68.75C15.6485 68.75 17.1875 70.289 17.1875 72.1875C17.1875 74.086 15.6485 75.625 13.75 75.625Z" fill="#679436"/>
<path fill-rule="evenodd" clip-rule="evenodd" d="M12.0312 65.3125C11.5754 65.3125 11.1382 65.4936 10.8159 65.8159C10.4936 66.1382 10.3125 66.5754 10.3125 67.0313C10.3125 67.4871 10.4936 67.9243 10.8159 68.2466C11.1382 68.5689 11.5754 68.75 12.0312 68.75H23.353C24.7187 68.7506 26.0283 69.293 26.9946 70.2582L30.9375 74.2011L34.8804 70.2582C35.8467 69.293 37.1563 68.7506 38.522 68.75H73.9062C74.3621 68.75 74.7993 68.5689 75.1216 68.2466C75.4439 67.9243 75.625 67.4871 75.625 67.0313C75.625 66.5754 75.4439 66.1382 75.1216 65.8159C74.7993 65.4936 74.3621 65.3125 73.9062 65.3125H12.0312ZM5.95455 60.9546C7.56619 59.3429 9.75204 58.4375 12.0312 58.4375H73.9062C76.1855 58.4375 78.3713 59.3429 79.9829 60.9546C81.5946 62.5662 82.5 64.752 82.5 67.0313C82.5 69.3105 81.5946 71.4963 79.9829 73.1079C78.3713 74.7196 76.1855 75.625 73.9062 75.625H39.2364L33.9775 80.8838C33.9771 80.8843 33.9766 80.8847 33.9762 80.8852C33.5774 81.2841 33.104 81.6005 32.5829 81.8165C32.0613 82.0328 31.5021 82.144 30.9375 82.144C30.3729 82.144 29.8137 82.0328 29.2921 81.8165C28.771 81.6005 28.2976 81.2841 27.8988 80.8852C27.8984 80.8847 27.8979 80.8843 27.8975 80.8838L22.6386 75.625H12.0312C9.75204 75.625 7.56619 74.7196 5.95455 73.1079C4.34291 71.4963 3.4375 69.3105 3.4375 67.0313C3.4375 64.752 4.34291 62.5662 5.95455 60.9546Z" fill="#EBF2FA"/>
<path fill-rule="evenodd" clip-rule="evenodd" d="M22.1689 48.534C19.1231 50.8984 17.1875 54.3913 17.1875 59.2496V59.2969C17.1875 61.1954 15.6485 62.7344 13.75 62.7344C11.8515 62.7344 10.3125 61.1954 10.3125 59.2969V59.2496C10.3125 52.2915 13.2109 46.7846 17.9532 43.1033C22.5969 39.4985 28.7721 37.8125 35.2344 37.8125H50.7031C57.171 37.8125 63.3471 39.5131 67.9895 43.1309C72.7109 46.8104 75.604 52.3002 75.6249 59.2213C75.625 59.2308 75.625 59.2402 75.625 59.2496C75.625 59.2654 75.625 59.2811 75.625 59.2969H68.75C68.75 54.4372 66.813 50.9302 63.7635 48.5537C60.6177 46.1021 56.0516 44.6875 50.7031 44.6875H35.2344C29.8802 44.6875 25.3133 46.0931 22.1689 48.534Z" fill="#EBF2FA"/>
<path fill-rule="evenodd" clip-rule="evenodd" d="M51.3802 20.6483C53.266 20.429 54.9725 21.7799 55.1918 23.6657L56.7903 37.4093C57.0096 39.295 55.6587 41.0015 53.7729 41.2209C51.8872 41.4402 50.1806 40.0893 49.9613 38.2035L48.3629 24.4599C48.1436 22.5742 49.4945 20.8677 51.3802 20.6483Z" fill="#EBF2FA"/>
<path fill-rule="evenodd" clip-rule="evenodd" d="M99.8341 20.6443C101.722 20.844 103.091 22.5363 102.891 24.4242L95.209 97.0782C95.0018 99.6509 93.8372 102.053 91.9443 103.81C90.0372 105.579 87.5316 106.563 84.9299 106.563H55C53.1015 106.563 51.5625 105.024 51.5625 103.125C51.5625 101.227 53.1015 99.6878 55 99.6878H84.9298C85.797 99.6878 86.6322 99.3599 87.2679 98.7701C87.9036 98.1802 88.2929 97.3718 88.3577 96.507L88.3616 96.4546L96.0542 23.7013C96.2538 21.8134 97.9462 20.4447 99.8341 20.6443Z" fill="#EBF2FA"/>
<path fill-rule="evenodd" clip-rule="evenodd" d="M95.8518 5.76718C96.4636 7.56437 95.5027 9.51726 93.7055 10.1291L85.3807 12.963L82.3974 24.8962C81.9369 26.738 80.0706 27.8578 78.2288 27.3973C76.387 26.9369 75.2672 25.0705 75.7277 23.2287L79.1652 9.47874C79.4483 8.34609 80.287 7.43459 81.3922 7.05835L91.4899 3.62085C93.2871 3.00904 95.24 3.96998 95.8518 5.76718Z" fill="#679436"/>
<path fill-rule="evenodd" clip-rule="evenodd" d="M44.6875 24.0625C44.6875 22.164 46.2265 20.625 48.125 20.625H103.125C105.023 20.625 106.562 22.164 106.562 24.0625C106.562 25.961 105.023 27.5 103.125 27.5H48.125C46.2265 27.5 44.6875 25.961 44.6875 24.0625Z" fill="#679436"/>
</svg>
