<svg width="180" height="180" viewBox="0 0 180 180" fill="none" xmlns="http://www.w3.org/2000/svg">
<path d="M135 75C135 67.5 127.5 60 112.5 60C110.234 60 107.663 60 105.002 60C92.5755 60 82.5 49.9264 82.5 37.5V15" stroke="#679436" stroke-width="6" stroke-linecap="round" stroke-linejoin="round"/>
<path d="M135 157.5H22.5V127.5L48.75 105L78.75 123.75L108.75 105L135 123.75M135 157.5H157.5V90H135V123.75V157.5ZM135 157.5V123.75V157.5Z" stroke="#EBF2FA" stroke-width="8" stroke-linecap="round" stroke-linejoin="round"/>
<path d="M157.5 75C157.5 30 127.5 30 127.5 30C127.5 30 157.5 33.75 157.5 15" stroke="#679436" stroke-width="6" stroke-linecap="round" stroke-linejoin="round"/>
</svg>
