<svg width="150" height="150" viewBox="0 0 150 150" fill="none" xmlns="http://www.w3.org/2000/svg">
<path d="M75 135.937C41.3994 135.937 14.0625 108.6 14.0625 74.999C14.0625 41.3984 41.3994 14.0615 75 14.0615C108.601 14.0615 135.938 41.3984 135.938 74.999C135.938 108.6 108.601 135.937 75 135.937ZM75 23.4365C46.582 23.4365 23.4375 46.5811 23.4375 74.999C23.4375 103.417 46.582 126.562 75 126.562C103.418 126.562 126.562 103.432 126.562 74.999C126.562 46.5664 103.433 23.4365 75 23.4365Z" fill="#EBF2FA"/>
<path d="M94.8252 85.5459C89.7275 85.5459 84.8027 83.2842 80.956 79.1797C77.1512 75.0527 74.8763 69.7459 74.5107 64.1445C74.08 58.0801 75.9404 52.499 79.749 48.4355C83.5576 44.3721 88.8808 42.1865 94.8252 42.1865C100.726 42.1865 106.066 44.4189 109.863 48.4736C113.66 52.5283 115.567 58.1416 115.137 64.1504C114.764 69.7484 112.49 75.0511 108.691 79.1797C104.842 83.2842 99.9199 85.5459 94.8252 85.5459Z" fill="#EBF2FA"/>
<path d="M47.9941 86.5303C39.2754 86.5303 31.6084 78.4707 30.9053 68.5625C30.5449 63.4883 32.1211 58.7979 35.3496 55.3555C38.5781 51.9131 43.0312 50.082 47.9912 50.082C52.9512 50.082 57.4014 51.9688 60.6094 55.3965C63.8174 58.8242 65.4433 63.5469 65.0771 68.5801C64.3623 78.4736 56.6982 86.5303 47.9941 86.5303Z" fill="#EBF2FA"/>
<path d="M123.155 104.085C122.689 102.708 121.556 101.24 119.282 99.8486C112.409 95.6504 103.954 93.4297 94.8252 93.4297C85.8692 93.4297 77.1797 95.7441 70.3535 99.9482C62.6631 104.686 57.4951 111.594 55.4121 119.923C54.9199 121.883 54.2022 125.53 54.9697 127.572C67.2876 132.256 80.8583 132.471 93.3182 128.18C105.778 123.888 116.338 115.361 123.158 104.085H123.155Z" fill="#EBF2FA"/>
<path d="M47.9385 117.588C50.0098 109.323 54.419 102.433 61.2598 96.8603C61.5832 96.5935 61.8291 96.2449 61.9719 95.8507C62.1147 95.4565 62.1491 95.0312 62.0716 94.6192C61.9941 94.2072 61.8075 93.8235 61.5313 93.5081C61.255 93.1927 60.8992 92.9572 60.501 92.8262C56.9854 91.7041 52.9717 91.1035 47.9941 91.1035C41.0156 91.1035 33.6064 92.9932 28.0312 96.4268C26.4492 97.4023 24.8965 97.7773 23.7012 98.1113C28.5002 108.718 36.4588 117.583 46.4883 123.494L47.0127 123.453C47.1274 121.472 47.4375 119.508 47.9385 117.588Z" fill="#EBF2FA"/>
</svg>
