<svg width="50" height="50" viewBox="0 0 50 50" fill="none" xmlns="http://www.w3.org/2000/svg">
<path d="M25.2832 4.68743C13.8594 4.53314 4.5332 13.8593 4.6875 25.2831C4.83984 36.2392 13.7607 45.1601 24.7168 45.3124C36.1426 45.4687 45.4668 36.1425 45.3105 24.7187C45.1602 13.7607 36.2393 4.83978 25.2832 4.68743ZM37.6289 36.6454C37.59 36.6875 37.5423 36.7205 37.4892 36.7421C37.4362 36.7637 37.379 36.7733 37.3218 36.7703C37.2646 36.7673 37.2087 36.7518 37.1581 36.7248C37.1076 36.6979 37.0636 36.6601 37.0293 36.6142C36.1558 35.4714 35.0861 34.4929 33.8701 33.7245C31.3838 32.1288 28.2334 31.2499 25 31.2499C21.7666 31.2499 18.6162 32.1288 16.1299 33.7245C14.9139 34.4926 13.8442 35.4707 12.9707 36.6132C12.9364 36.6591 12.8924 36.6969 12.8418 36.7239C12.7913 36.7508 12.7354 36.7664 12.6782 36.7694C12.621 36.7723 12.5638 36.7627 12.5107 36.7411C12.4577 36.7195 12.41 36.6865 12.3711 36.6445C9.50554 33.5511 7.88231 29.509 7.8125 25.2929C7.65332 15.79 15.4512 7.83587 24.958 7.81243C34.4648 7.789 42.1875 15.5087 42.1875 24.9999C42.1908 29.3177 40.5625 33.4773 37.6289 36.6454Z" fill="#EBF2FA"/>
<path d="M25 14.0625C23.0742 14.0625 21.333 14.7842 20.0957 16.0957C18.8584 17.4072 18.2402 19.2207 18.3799 21.167C18.6631 25 21.6328 28.125 25 28.125C28.3672 28.125 31.3311 25 31.6201 21.168C31.7646 19.2402 31.1514 17.4434 29.8936 16.1074C28.6514 14.7891 26.9131 14.0625 25 14.0625Z" fill="#EBF2FA"/>
</svg>
